HIERARCHY
ROOT Hips
{
	OFFSET -3.958830 18.904000 13.208200
	CHANNELS 6 Xposition Yposition Zposition Zrotation Yrotation Xrotation 
	JOINT LHipJoint
	{
		OFFSET 0.000000 0.000000 0.000000
		CHANNELS 3 Zrotation Yrotation Xrotation
		JOINT LeftUpLeg
		{
			OFFSET 1.800000 -1.400000 0.085000
			CHANNELS 3 Zrotation Yrotation Xrotation
			JOINT LeftLeg
			{
				OFFSET 2.215000 -6.000000 0.000000
				CHANNELS 3 Zrotation Yrotation Xrotation
				JOINT LeftFoot
				{
					OFFSET 2.500000 -6.900000 0.000000
					CHANNELS 3 Zrotation Yrotation Xrotation
					JOINT LeftToeBase
					{
						OFFSET 0.200000 -0.500000 1.950000
						CHANNELS 3 Zrotation Yrotation Xrotation
						End Site
						{
							OFFSET 0.000000 0.000000 0.000000
						}
					}
				}
			}
		}
	}
	JOINT RHipJoint
	{
		OFFSET 0.000000 0.000000 0.000000
		CHANNELS 3 Zrotation Yrotation Xrotation
		JOINT RightUpLeg
		{
			OFFSET -1.800000 -1.400000 0.085000
			CHANNELS 3 Zrotation Yrotation Xrotation
			JOINT RightLeg
			{
				OFFSET -2.215000 -6.000000 0.000000
				CHANNELS 3 Zrotation Yrotation Xrotation
				JOINT RightFoot
				{
					OFFSET -2.500000 -6.900000 0.000000
					CHANNELS 3 Zrotation Yrotation Xrotation
					JOINT RightToeBase
					{
						OFFSET -0.200000 -0.500000 1.950000
						CHANNELS 3 Zrotation Yrotation Xrotation
						End Site
						{
							OFFSET 0.000000 0.000000 0.000000
						}
					}
				}
			}
		}
	}
	JOINT LowerBack
	{
		OFFSET 0.000000 0.000000 0.000000
		CHANNELS 3 Zrotation Yrotation Xrotation
		JOINT Spine
		{
			OFFSET -0.087000 1.940000 -0.288900
			CHANNELS 3 Zrotation Yrotation Xrotation
			JOINT Spine1
			{
				OFFSET 0.000000 1.950000 0.060000
				CHANNELS 3 Zrotation Yrotation Xrotation
				JOINT Neck
				{
					OFFSET 0.000000 0.000000 0.000000
					CHANNELS 3 Zrotation Yrotation Xrotation
					JOINT Neck1
					{
						OFFSET 0.000000 1.600000 0.340000
						CHANNELS 3 Zrotation Yrotation Xrotation
						JOINT Head
						{
							OFFSET 0.000000 1.667000 -0.240000
							CHANNELS 3 Zrotation Yrotation Xrotation
							End Site
							{
								OFFSET 0.000000 0.000000 0.000000
							}
						}
					}
				}
				JOINT LeftShoulder
				{
					OFFSET 0.000000 0.000000 0.000000
					CHANNELS 3 Zrotation Yrotation Xrotation
					JOINT LeftArm
					{
						OFFSET 2.700000 1.550000 -0.730000
						CHANNELS 3 Zrotation Yrotation Xrotation
						JOINT LeftForeArm
						{
							OFFSET 5.450000 0.000000 0.000000
							CHANNELS 3 Zrotation Yrotation Xrotation
							JOINT LeftHand
							{
								OFFSET 3.450000 0.000000 0.000000
								CHANNELS 3 Zrotation Yrotation Xrotation
								JOINT LeftHandIndex1
								{
									OFFSET 0.750000 0.000000 0.000000
									CHANNELS 3 Zrotation Yrotation Xrotation
									End Site
									{
										OFFSET 0.000000 0.000000 0.000000
									}
								}
							}
						}
					}
				}
				JOINT RightShoulder
				{
					OFFSET 0.000000 0.000000 0.000000
					CHANNELS 3 Zrotation Yrotation Xrotation
					JOINT RightArm
					{
						OFFSET -2.700000 1.550000 -0.730000
						CHANNELS 3 Zrotation Yrotation Xrotation
						JOINT RightForeArm
						{
							OFFSET -5.450000 0.000000 0.000000
							CHANNELS 3 Zrotation Yrotation Xrotation
							JOINT RightHand
							{
								OFFSET -3.450000 0.000000 0.000000
								CHANNELS 3 Zrotation Yrotation Xrotation
								JOINT RightHandIndex1
								{
									OFFSET -0.750000 0.000000 0.000000
									CHANNELS 3 Zrotation Yrotation Xrotation
									End Site
									{
										OFFSET 0.000000 0.000000 0.000000
									}
								}
							}
						}
					}
				}
			}
		}
	}
}
MOTION
Frames: 8
Frame Time: 0.016667
-0.846010 17.001790 -4.368380 -5.202965 4.783058 7.753614 -14.985825 11.827633 2.677752 18.953701 0.406887 -21.259105 -0.634479 3.634468 3.674143 -0.346982 3.403337 3.393784 0.210390 0.134050 -0.002050 18.486318 -10.997337 3.528617 -6.778971 1.805265 -6.777082 18.742487 -4.446491 0.632694 -0.289237 -4.627135 2.892735 0.252300 0.368630 0.113590 -4.209670 1.568378 -7.704092 11.753549 3.557002 7.819879 -4.536553 4.844142 11.001245 9.182105 -2.605754 -11.747587 -2.761701 -4.720432 24.711607 -2.494070 -5.886490 -4.654500 -17.897775 -11.675958 7.657772 -48.226691 7.365685 -7.943322 -17.936522 -17.968073 -0.257974 -3.894598 3.141619 -0.079100 0.286850 -0.263020 0.172970 0.441133 20.398142 4.435625 -24.355143 23.178502 -15.901144 -78.238272 1.317326 -5.344307 2.571454 -2.004180 -0.123060 0.197350 0.028110 0.014770 
-0.832300 17.001450 -4.359790 -5.115911 5.221611 7.359496 -14.975209 11.856056 2.665978 18.926337 0.457535 -21.458471 -0.767542 3.747068 4.396297 -0.354618 3.407698 3.384858 0.205260 0.126700 0.000480 18.486075 -11.052566 3.525685 -6.952519 1.752221 -6.616981 18.747593 -4.590619 1.071980 -0.289286 -4.656811 2.879716 0.248320 0.363900 0.113250 -4.232200 1.624437 -7.706361 11.921171 3.587590 8.304813 -4.731999 4.993502 10.724404 9.231835 -2.221376 -11.495004 -2.137894 -5.050758 25.029626 -2.673780 -6.068150 -4.564900 -18.523009 -10.972062 7.415230 -46.803274 8.393653 -8.376664 -18.728332 -19.190834 -0.046395 -3.879422 3.153361 -0.077440 0.286260 -0.262750 0.165870 0.881163 19.416403 4.319077 -24.079218 22.988071 -15.570669 -79.248662 1.850521 -5.595515 2.559996 -1.994008 -0.124120 0.194980 0.031840 0.010970 
-0.818080 17.002070 -4.348220 -4.965257 5.607405 6.982350 -14.971122 11.897482 2.664034 18.927363 0.502972 -21.655232 -1.033828 3.901099 5.198315 -0.358248 3.431261 3.371934 0.204250 0.124300 0.000450 18.479009 -11.114185 3.491970 -7.124321 1.688138 -6.593681 18.545285 -4.794341 1.897551 -0.281527 -4.665583 2.875883 0.247880 0.364030 0.110120 -4.235708 1.650777 -7.690330 11.895851 3.573781 8.645027 -4.720876 5.047128 10.570584 9.202698 -2.030600 -11.277738 -1.841336 -5.239628 25.329268 -2.651390 -6.309080 -4.504170 -18.707426 -10.392544 7.186514 -46.074481 8.878850 -8.580965 -19.111853 -19.808330 0.079997 -3.870638 3.156947 -0.076620 0.284610 -0.264000 0.165640 1.092908 18.686574 4.202320 -23.766117 23.013247 -15.345296 -79.748136 2.315793 -5.874967 2.549687 -1.987219 -0.126110 0.198170 0.032200 0.010970 
-0.802490 17.004870 -4.333520 -4.755290 5.909082 6.626463 -14.967270 11.945818 2.653912 18.843834 0.512647 -21.749004 -1.254045 4.040834 5.994636 -0.363915 3.453299 3.360638 0.206760 0.124750 0.005020 18.470341 -11.186611 3.443976 -7.376640 1.656305 -6.753856 18.279153 -5.040610 2.992962 -0.269936 -4.669929 2.867973 0.249930 0.362270 0.111730 -4.236672 1.681594 -7.652770 11.762603 3.492362 8.735125 -4.609179 4.977521 10.615972 9.166071 -1.917658 -11.139292 -1.664621 -5.412588 25.545139 -2.836100 -6.480740 -4.435640 -18.630381 -10.054598 7.063785 -45.993243 9.019625 -8.650581 -18.705076 -19.895435 0.059153 -3.872201 3.154511 -0.077380 0.284870 -0.263740 0.165330 1.108397 18.243797 4.097208 -23.365159 23.429954 -15.215786 -79.763857 2.863477 -6.301240 2.539681 -1.985826 -0.126060 0.197540 0.030860 0.010030 
-0.784560 17.003380 -4.318960 -4.484888 6.195027 6.364612 -14.958540 11.984736 2.649678 18.713805 0.488192 -21.853935 -1.506530 4.173206 6.731527 -0.375740 3.475322 3.349600 0.212360 0.133170 0.005840 18.466880 -11.273383 3.377013 -7.671345 1.647804 -7.093028 17.849484 -5.314202 4.359938 -0.251776 -4.664557 2.864877 0.258880 0.364450 0.111670 -4.252765 1.739423 -7.597791 11.659603 3.364390 8.632468 -4.549768 4.840405 10.758996 9.121444 -1.883909 -11.005680 -1.592436 -5.558267 25.559936 -2.966280 -6.667550 -4.555740 -18.263553 -9.749567 6.950151 -46.374083 8.881092 -8.665273 -17.952398 -19.816844 -0.021545 -3.881931 3.143881 -0.079410 0.288070 -0.265450 0.167150 0.865696 17.861546 3.972341 -22.852388 24.097656 -15.146997 -79.512123 3.231699 -6.675696 2.526225 -1.986337 -0.127300 0.202860 0.030780 0.010460 
-0.764790 17.001820 -4.306770 -4.268499 6.406073 6.140825 -14.951684 12.031494 2.647065 18.550099 0.450187 -21.975858 -1.693380 4.295727 7.482341 -0.386854 3.494112 3.341744 0.223960 0.149690 0.005550 18.460921 -11.362121 3.304026 -7.897277 1.677395 -7.577868 17.373256 -5.598972 5.942346 -0.232644 -4.652518 2.865637 0.272130 0.371020 0.111200 -4.262407 1.787965 -7.538711 11.574035 3.240495 8.542451 -4.437361 4.695726 10.859561 9.084029 -1.866570 -10.875643 -1.530923 -5.638201 25.419668 -2.832650 -6.887380 -4.820550 -17.937406 -9.490194 6.814520 -46.993772 8.517223 -8.591460 -16.807892 -19.535620 -0.159581 -3.893968 3.129887 -0.081950 0.291070 -0.267100 0.174680 0.644942 17.550589 3.858856 -22.392260 24.657878 -15.077550 -79.208696 3.718748 -7.127808 2.510914 -1.987491 -0.127350 0.212800 0.027770 0.014500 
-0.743480 17.002210 -4.297360 -4.119808 6.475769 5.959760 -14.941192 12.078715 2.645308 18.394152 0.417454 -22.027806 -1.739224 4.367788 8.052111 -0.386091 3.493705 3.339515 0.232310 0.166530 0.000200 18.458055 -11.454099 3.236403 -7.984168 1.706658 -8.072960 16.731709 -5.818659 7.448568 -0.214202 -4.626006 2.869397 0.280710 0.373190 0.113510 -4.279588 1.844393 -7.489539 11.622734 3.160934 8.493129 -4.426577 4.633249 10.899600 9.072960 -1.832732 -10.807188 -1.440795 -5.715871 25.286249 -2.654910 -7.082330 -5.002350 -17.723339 -9.309649 6.755709 -47.625143 8.301819 -8.667654 -15.684215 -19.783084 -0.240706 -3.895399 3.131047 -0.088320 0.290940 -0.264240 0.182730 0.456660 17.329538 3.779443 -21.908409 24.987394 -14.980926 -78.784632 4.201617 -7.548051 2.505973 -1.992203 -0.120270 0.214580 0.023150 0.023170 
-0.724880 17.003510 -4.291540 -3.964418 6.628417 5.836657 -14.933302 12.119518 2.648700 18.173130 0.352178 -22.105844 -1.771723 4.408288 8.484293 -0.388870 3.485343 3.341287 0.238810 0.177560 -0.005530 18.454115 -11.529559 3.178490 -8.040104 1.754370 -8.590308 16.161547 -5.999032 8.813574 -0.195774 -4.604366 2.871079 0.287270 0.375980 0.115600 -4.292333 1.882873 -7.449374 11.640530 3.068217 8.488950 -4.400296 4.566516 10.922473 9.046145 -1.827038 -10.730032 -1.408375 -5.774132 25.196006 -2.481910 -7.293290 -5.081220 -17.505851 -9.098150 6.669156 -48.187147 8.037869 -8.727967 -14.508614 -20.158046 -0.316814 -3.897426 3.135423 -0.093860 0.291510 -0.265360 0.188740 0.296035 17.092824 3.713815 -21.383286 25.215152 -14.855693 -78.601236 4.673440 -7.961338 2.499031 -1.999551 -0.115260 0.214210 0.021060 0.029370 
